# xmcd
#
# Track frame offsets: 
#        150
#        10285
#        22487
#        33767
#        42637
#        55650
#        66927
#        80702
#        91495
#        102542
#        112512
#        121265
#        133417
#        144785
#        156852
#        168082
#        178957
#        190897
#        200720
#        210907
#        223460
#        235622
#        247732
#        258877
#
# Disc length: 3590 seconds
#
# Revision: 7
# Processed by: cddbd v1.5.2PL0 Copyright (c) Steve Scherf et al.
# Submitted via: ExactAudioCopy v1.0b1
#
DISCID=560e0418
DTITLE=Carl Perkins - The Classics - Disc 5 of 5
DYEAR=1990
DGENRE=Rockabilly
TTITLE0=Blue Suede Shoes (1964) (stereo)
TTITLE1=Big Bad Blues (stereo)
TTITLE2=Say When (stereo)
TTITLE3=Lonely Heart (stereo)
TTITLE4=A Love I'll Never Win (stereo)
TTITLE5=Let My Baby Be (stereo)
TTITLE6=Monkey Shine (stereo)
TTITLE7=Mama Of My Song (stereo)
TTITLE8=One Of These Days (stereo)
TTITLE9=I Wouldn't Have You (stereo)
TTITLE10=Help Me Find My Baby (stereo)
TTITLE11=After Sundown (stereo)
TTITLE12=For A Little While (stereo)
TTITLE13=Just For You (stereo)
TTITLE14=When The Right Time Comes (stereo)
TTITLE15=The Fool I Used To Be (stereo)
TTITLE16=Forget Me (Next Time Around) (stereo)
TTITLE17=Hollywood City (stereo)
TTITLE18=I've Just Got Back From There (stereo)
TTITLE19=Too Much For A Man To Understand (alt) (stereo)
TTITLE20=Turn Around (mono)
TTITLE21=Unhappy Girls (mono)
TTITLE22=Someday Somewhere Someone Waits For Me (mono)
TTITLE23=Anyway The Wind Blows (mono)
EXTD=
EXTT0=
EXTT1=
EXTT2=
EXTT3=
EXTT4=
EXTT5=
EXTT6=
EXTT7=
EXTT8=
EXTT9=
EXTT10=
EXTT11=
EXTT12=
EXTT13=
EXTT14=
EXTT15=
EXTT16=
EXTT17=
EXTT18=
EXTT19=
EXTT20=
EXTT21=
EXTT22=
EXTT23=
PLAYORDER=
